<svg width="29" height="29" viewBox="0 0 29 29" fill="none" xmlns="http://www.w3.org/2000/svg">
<g id="Frame" opacity="0.4">
<path id="Vector" fill-rule="evenodd" clip-rule="evenodd" d="M14.7 28.6602C6.96796 28.6602 0.699951 22.3921 0.699951 14.6602C0.699951 6.92817 6.96796 0.660156 14.7 0.660156C22.4319 0.660156 28.7 6.92817 28.7 14.6602C28.7 22.3921 22.4319 28.6602 14.7 28.6602ZM14.7 7.16016C12.6631 7.16016 12.4077 7.16879 11.6077 7.20529C10.8094 7.2417 10.2642 7.3685 9.78717 7.55391C9.29397 7.74555 8.87572 8.002 8.45874 8.41895C8.04179 8.83592 7.78534 9.25418 7.59371 9.74737C7.40829 10.2244 7.28149 10.7696 7.24508 11.5679C7.20858 12.3679 7.19995 12.6233 7.19995 14.6602C7.19995 16.697 7.20858 16.9524 7.24508 17.7524C7.28149 18.5507 7.40829 19.0959 7.59371 19.5729C7.78534 20.0661 8.04179 20.4844 8.45874 20.9014C8.87572 21.3183 9.29397 21.5748 9.78717 21.7664C10.2642 21.9518 10.8094 22.0786 11.6077 22.115C12.4077 22.1515 12.6631 22.1602 14.7 22.1602C16.7368 22.1602 16.9922 22.1515 17.7922 22.115C18.5905 22.0786 19.1357 21.9518 19.6127 21.7664C20.1059 21.5748 20.5242 21.3183 20.9412 20.9014C21.3581 20.4844 21.6146 20.0661 21.8062 19.5729C21.9916 19.0959 22.1184 18.5507 22.1548 17.7524C22.1913 16.9524 22.2 16.697 22.2 14.6602C22.2 12.6233 22.1913 12.3679 22.1548 11.5679C22.1184 10.7696 21.9916 10.2244 21.8062 9.74737C21.6146 9.25418 21.3581 8.83592 20.9412 8.41895C20.5242 8.002 20.1059 7.74555 19.6127 7.55391C19.1357 7.3685 18.5905 7.2417 17.7922 7.20529C16.9922 7.16879 16.7368 7.16016 14.7 7.16016ZM14.7 8.51151C16.7025 8.51151 16.9398 8.51916 17.7306 8.55524C18.4618 8.58858 18.859 8.71076 19.1232 8.81347C19.4733 8.94953 19.7232 9.11205 19.9856 9.37452C20.2481 9.63695 20.4106 9.88679 20.5466 10.2369C20.6493 10.5012 20.7715 10.8983 20.8049 11.6295C20.841 12.4204 20.8486 12.6576 20.8486 14.6602C20.8486 16.6627 20.841 16.9 20.8049 17.6908C20.7715 18.422 20.6493 18.8192 20.5466 19.0834C20.4106 19.4335 20.2481 19.6834 19.9856 19.9458C19.7232 20.2083 19.4733 20.3708 19.1232 20.5068C18.859 20.6095 18.4618 20.7317 17.7306 20.7651C16.9399 20.8012 16.7027 20.8088 14.7 20.8088C12.6972 20.8088 12.4601 20.8012 11.6693 20.7651C10.9381 20.7317 10.5409 20.6095 10.2767 20.5068C9.92659 20.3708 9.67674 20.2083 9.41431 19.9458C9.15188 19.6834 8.98932 19.4335 8.85327 19.0834C8.75056 18.8192 8.62838 18.422 8.59503 17.6908C8.55895 16.9 8.5513 16.6627 8.5513 14.6602C8.5513 12.6576 8.55895 12.4204 8.59503 11.6295C8.62838 10.8983 8.75056 10.5012 8.85327 10.2369C8.98932 9.88679 9.15185 9.63695 9.41431 9.37452C9.67674 9.11205 9.92659 8.94953 10.2767 8.81347C10.5409 8.71076 10.9381 8.58858 11.6693 8.55524C12.4602 8.51916 12.6974 8.51151 14.7 8.51151ZM14.7 17.1602C13.3192 17.1602 12.2 16.0409 12.2 14.6602C12.2 13.2794 13.3192 12.1602 14.7 12.1602C16.0807 12.1602 17.2 13.2794 17.2 14.6602C17.2 16.0409 16.0807 17.1602 14.7 17.1602ZM14.7 10.8088C12.5729 10.8088 10.8486 12.5331 10.8486 14.6602C10.8486 16.7872 12.5729 18.5115 14.7 18.5115C16.827 18.5115 18.5513 16.7872 18.5513 14.6602C18.5513 12.5331 16.827 10.8088 14.7 10.8088ZM19.6035 10.6566C19.6035 10.1596 19.2005 9.75663 18.7035 9.75663C18.2064 9.75663 17.8035 10.1596 17.8035 10.6566C17.8035 11.1537 18.2064 11.5566 18.7035 11.5566C19.2005 11.5566 19.6035 11.1537 19.6035 10.6566Z" fill="white"/>
</g>
</svg>
