<svg width="29" height="29" viewBox="0 0 29 29" fill="none" xmlns="http://www.w3.org/2000/svg">
<g id="Frame" opacity="0.4">
<path id="Vector" fill-rule="evenodd" clip-rule="evenodd" d="M14.7 28.6602C6.96796 28.6602 0.699951 22.3921 0.699951 14.6602C0.699951 6.92817 6.96796 0.660156 14.7 0.660156C22.4319 0.660156 28.7 6.92817 28.7 14.6602C28.7 22.3921 22.4319 28.6602 14.7 28.6602ZM10.2625 7.66016C9.39723 7.66016 8.69995 8.36121 8.69995 9.22501C8.69995 10.0893 9.39723 10.7904 10.2625 10.7904C11.1243 10.7904 11.8241 10.0893 11.8241 9.22501C11.8241 8.36121 11.1243 7.66016 10.2625 7.66016ZM8.91388 20.6602H11.6101V11.9766H8.91388V20.6602ZM13.3004 11.9766V20.6602H15.9911V16.3654C15.9911 15.2322 16.205 14.1349 17.6066 14.1349C18.9891 14.1349 19.0067 15.4303 19.0067 16.4372V20.6602H21.7V15.8979C21.7 13.5592 21.1959 11.7613 18.4689 11.7613C17.1581 11.7613 16.2787 12.4811 15.9194 13.1639H15.8826V11.9766H13.3004Z" fill="white"/>
</g>
</svg>
